{"accessors" : [{"bufferView" : 0, "byteOffset" : 0, "componentType" : 5123, "count" : 1644, "type" : "SCALAR", "max" : [1643], "min" : [0]}, {"bufferView" : 1, "byteOffset" : 0, "componentType" : 5126, "count" : 1644, "type" : "VEC3", "max" : [1.0112007856369019, 7.896600246429443, 2.613797664642334], "min" : [-1.085498332977295, -6.455986022949219, -6.346768379211426], "name" : "POSITION"}, {"bufferView" : 1, "byteOffset" : 12, "componentType" : 5126, "count" : 1644, "type" : "VEC3", "max" : [1.0000044107437134, 1.0000044107437134, 1.0000044107437134], "min" : [-1.0000044107437134, -1.0000044107437134, -1.0000044107437134], "name" : "NORMAL"}, {"bufferView" : 1, "byteOffset" : 24, "componentType" : 5126, "count" : 1644, "type" : "VEC2", "max" : [0.9976040124893188, 0.9976053237915039], "min" : [0.002394443843513727, 0.006772637367248535], "name" : "TEXCOORD_0"}], "asset" : {"generator" : "Aspose.3D 24.6.0", "version" : "2.0"}, "buffers" : [{"uri" : "data:application/octet-stream;base64,", "byteLength" : 55904}], "bufferViews" : [{"buffer" : 0, "byteOffset" : 0, "byteLength" : 3288, "target" : 34963}, {"buffer" : 0, "byteOffset" : 3292, "byteLength" : 52608, "byteStride" : 32, "target" : 34962}], "materials" : [{"name" : "Material.014", "pbrMetallicRoughness" : {"baseColorFactor" : [0.800000011920929, 0.800000011920929, 0.800000011920929, 1], "metallicFactor" : 1, "roughnessFactor" : 1}, "emissiveFactor" : [0, 0, 0], "alphaMode" : "OPAQUE", "doubleSided" : false}], "meshes" : [{"primitives" : [{"attributes" : {"POSITION" : 1, "NORMAL" : 2, "TEXCOORD_0" : 3}, "indices" : 0, "material" : 0, "mode" : 4}], "name" : "Cube.055"}], "nodes" : [{"matrix" : [17.062620162963867, 0, 0, 0, 0, -4.813876499400407E-06, -17.06262016296319, 0, 0, 17.06262016296319, -4.813876499400407E-06, 0, 538.874267578125, -13.773759841918945, 683.8755493164062, 1], "mesh" : 0, "name" : "Uzi"}], "scene" : 0, "scenes" : [{"nodes" : [0]}]}