{"accessors" : [{"bufferView" : 0, "byteOffset" : 0, "componentType" : 5123, "count" : 1344, "type" : "SCALAR", "max" : [1343], "min" : [0]}, {"bufferView" : 1, "byteOffset" : 0, "componentType" : 5126, "count" : 1344, "type" : "VEC3", "max" : [1.0118739604949951, 6.958070755004883, 4.496349334716797], "min" : [-1.0118739604949951, -6.7956366539001465, -1.5465161800384521], "name" : "POSITION"}, {"bufferView" : 1, "byteOffset" : 12, "componentType" : 5126, "count" : 1344, "type" : "VEC3", "max" : [1.0000044107437134, 1.0000044107437134, 1.0000044107437134], "min" : [-1.0000044107437134, -1.0000044107437134, -1.0000044107437134], "name" : "NORMAL"}, {"bufferView" : 1, "byteOffset" : 24, "componentType" : 5126, "count" : 1344, "type" : "VEC2", "max" : [0.9975680708885193, 0.9975710511207581], "min" : [0.0024295146577060223, 0.02938634157180786], "name" : "TEXCOORD_0"}], "asset" : {"generator" : "Aspose.3D 24.6.0", "version" : "2.0"}, "buffers" : [{"uri" : "data:application/octet-stream;base64,", "byteLength" : 45704}], "bufferViews" : [{"buffer" : 0, "byteOffset" : 0, "byteLength" : 2688, "target" : 34963}, {"buffer" : 0, "byteOffset" : 2692, "byteLength" : 43008, "byteStride" : 32, "target" : 34962}], "materials" : [{"name" : "Retribution", "pbrMetallicRoughness" : {"baseColorFactor" : [0.800000011920929, 0.800000011920929, 0.800000011920929, 1], "metallicFactor" : 1, "roughnessFactor" : 1}, "emissiveFactor" : [0, 0, 0], "alphaMode" : "OPAQUE", "doubleSided" : false}], "meshes" : [{"primitives" : [{"attributes" : {"POSITION" : 1, "NORMAL" : 2, "TEXCOORD_0" : 3}, "indices" : 0, "material" : 0, "mode" : 4}], "name" : "Cube.081"}], "nodes" : [{"matrix" : [100, 0, 0, 0, 0, -1.6292067955264296E-05, -99.99999999999866, 0, 0, 99.99999999999866, -1.6292067955264296E-05, 0, 0, -478.2721862792969, 0, 1], "mesh" : 0, "name" : "Retribution"}], "scene" : 0, "scenes" : [{"nodes" : [0]}]}